<svg xmlns="http://www.w3.org/2000/svg" fill="none" viewBox="0 0 68.39 15">
<path d="M22.052 11.688C21.388 11.688 20.776 11.584 20.216 11.376C19.664 11.16 19.18 10.856 18.764 10.464C18.356 10.072 18.036 9.612 17.804 9.084C17.58 8.556 17.468 7.976 17.468 7.344C17.468 6.712 17.58 6.132 17.804 5.604C18.036 5.076 18.36 4.616 18.776 4.224C19.192 3.832 19.68 3.532 20.24 3.324C20.8 3.108 21.416 3 22.088 3C22.832 3 23.5 3.124 24.092 3.372C24.692 3.62 25.196 3.98 25.604 4.452L24.356 5.604C24.052 5.284 23.72 5.048 23.36 4.896C23 4.736 22.608 4.656 22.184 4.656C21.776 4.656 21.404 4.72 21.068 4.848C20.732 4.976 20.44 5.16 20.192 5.4C19.952 5.64 19.764 5.924 19.628 6.252C19.5 6.58 19.436 6.944 19.436 7.344C19.436 7.736 19.5 8.096 19.628 8.424C19.764 8.752 19.952 9.04 20.192 9.288C20.44 9.528 20.728 9.712 21.056 9.84C21.392 9.968 21.76 10.032 22.16 10.032C22.544 10.032 22.916 9.972 23.276 9.852C23.644 9.724 24 9.512 24.344 9.216L25.448 10.62C24.992 10.964 24.46 11.228 23.852 11.412C23.252 11.596 22.652 11.688 22.052 11.688ZM23.672 10.368V7.212H25.448V10.62L23.672 10.368Z" fill="#34364C"/>
<path d="M26.1498 11.544L29.8938 3.144H31.8138L35.5698 11.544H33.5298L30.4578 4.128H31.2258L28.1418 11.544H26.1498ZM28.0218 9.744L28.5378 8.268H32.8578L33.3858 9.744H28.0218Z" fill="#34364C"/>
<path d="M36.4413 11.544V3.144H38.0493L41.6253 9.072H40.7733L44.2893 3.144H45.8853L45.9093 11.544H44.0853L44.0733 5.94H44.4093L41.6013 10.656H40.7253L37.8573 5.94H38.2653V11.544H36.4413Z" fill="#34364C"/>
<path d="M47.9022 11.544V3.144H52.0062C53.0622 3.144 53.8542 3.344 54.3822 3.744C54.9182 4.144 55.1862 4.672 55.1862 5.328C55.1862 5.768 55.0782 6.152 54.8622 6.48C54.6462 6.8 54.3502 7.048 53.9742 7.224C53.5982 7.4 53.1662 7.488 52.6782 7.488L52.9062 6.996C53.4342 6.996 53.9022 7.084 54.3102 7.26C54.7182 7.428 55.0342 7.68 55.2582 8.016C55.4902 8.352 55.6062 8.764 55.6062 9.252C55.6062 9.972 55.3222 10.536 54.7542 10.944C54.1862 11.344 53.3502 11.544 52.2462 11.544H47.9022ZM49.8342 10.08H52.1022C52.6062 10.08 52.9862 10 53.2422 9.84C53.5062 9.672 53.6382 9.408 53.6382 9.048C53.6382 8.696 53.5062 8.436 53.2422 8.268C52.9862 8.092 52.6062 8.004 52.1022 8.004H49.6902V6.588H51.7662C52.2382 6.588 52.5982 6.508 52.8462 6.348C53.1022 6.18 53.2302 5.928 53.2302 5.592C53.2302 5.264 53.1022 5.02 52.8462 4.86C52.5982 4.692 52.2382 4.608 51.7662 4.608H49.8342V10.08Z" fill="#34364C"/>
<path d="M57.078 11.544V3.144H59.022V11.544H57.078Z" fill="#34364C"/>
<path d="M62.7555 11.544V4.728H60.0675V3.144H67.3875V4.728H64.6995V11.544H62.7555Z" fill="#34364C"/>
<path fill-rule="evenodd" clip-rule="evenodd" d="M19.8597 12.3104L19.8516 12.3072C19.1849 12.0464 18.5908 11.6748 18.0782 11.1918L18.0711 11.1851C17.5669 10.7007 17.1721 10.1317 16.8885 9.48627L16.8833 9.47458C16.6018 8.811 16.468 8.09645 16.468 7.344C16.468 6.59155 16.6019 5.87704 16.8834 5.21345L16.8884 5.20169C17.1739 4.55201 17.5757 3.98105 18.0902 3.49621C18.6065 3.00972 19.2087 2.64113 19.886 2.38874C20.572 2.12502 21.3098 2 22.088 2C22.9429 2 23.7445 2.14262 24.4762 2.44876C25.2134 2.75386 25.8468 3.20374 26.3605 3.79805L26.9935 4.5303L25.1716 6.212H26.448V8.41863L29.2447 2.144H32.4621L35.4413 8.80681V2.144H38.6139L41.1884 6.41182L43.7198 2.144H46.8824L46.9022 9.07048V2.144H52.0062C53.1585 2.144 54.2053 2.35696 54.983 2.94456C55.5342 3.35674 55.9065 3.88695 56.078 4.50675V2.144H68.3875V5.728H65.6995V12.544H61.7555V5.728H60.022V12.544H56.078V11.0141C55.8838 11.2923 55.6367 11.5413 55.3376 11.7562L55.33 11.7616C54.5206 12.3317 53.4444 12.544 52.2462 12.544H43.0874L43.0823 10.1234L42.1697 11.656H40.163L39.2653 10.1798V12.544H32.8616L32.116 10.744H29.5575L28.809 12.544H24.6093L24.7909 12.1364C24.582 12.2239 24.366 12.3012 24.1432 12.3687C23.4532 12.58 22.7552 12.688 22.052 12.688C21.2823 12.688 20.551 12.5672 19.8678 12.3134L19.8597 12.3104ZM23.852 11.412C23.8583 11.4101 23.8646 11.4082 23.8709 11.4062C24.1207 11.3298 24.3576 11.2397 24.5817 11.1361C24.8958 10.9907 25.1846 10.8187 25.448 10.62V7.212H23.672V9.67941C23.5416 9.74801 23.4096 9.80554 23.276 9.852C23.0783 9.9179 22.8769 9.96571 22.672 9.99542C22.5038 10.0198 22.3331 10.032 22.16 10.032C21.76 10.032 21.392 9.968 21.056 9.84C20.728 9.712 20.44 9.528 20.192 9.288C19.952 9.04 19.764 8.752 19.628 8.424C19.5 8.096 19.436 7.736 19.436 7.344C19.436 6.944 19.5 6.58 19.628 6.252C19.764 5.924 19.952 5.64 20.192 5.4C20.44 5.16 20.732 4.976 21.068 4.848C21.404 4.72 21.776 4.656 22.184 4.656C22.608 4.656 23 4.736 23.36 4.896C23.72 5.048 24.052 5.284 24.356 5.604L25.604 4.452C25.5473 4.38644 25.4888 4.32305 25.4284 4.26181C25.2529 4.08379 25.0618 3.92403 24.8549 3.78252C24.6207 3.62226 24.3664 3.48542 24.092 3.372C23.5 3.124 22.832 3 22.088 3C21.416 3 20.8 3.108 20.24 3.324C19.68 3.532 19.192 3.832 18.776 4.224C18.36 4.616 18.036 5.076 17.804 5.604C17.58 6.132 17.468 6.712 17.468 7.344C17.468 7.976 17.58 8.556 17.804 9.084C18.036 9.612 18.356 10.072 18.764 10.464C19.18 10.856 19.664 11.16 20.216 11.376C20.776 11.584 21.388 11.688 22.052 11.688C22.652 11.688 23.252 11.596 23.852 11.412ZM20.8933 6.11292C20.7552 6.25253 20.6422 6.42007 20.5558 6.62522C20.481 6.82079 20.436 7.05636 20.436 7.344C20.436 7.62117 20.4802 7.85321 20.5558 8.05084C20.6424 8.25638 20.7567 8.43065 20.8992 8.58067C21.0462 8.72012 21.2159 8.82842 21.4158 8.90695C21.6252 8.98615 21.8698 9.032 22.16 9.032C22.3353 9.032 22.5056 9.01484 22.672 8.98065V6.212H23.5509C23.3563 6.02421 23.1625 5.8981 22.971 5.81725L22.9624 5.81361L22.9538 5.80981C22.7312 5.71087 22.4789 5.656 22.184 5.656C21.8814 5.656 21.632 5.70323 21.424 5.78249C21.212 5.86322 21.0387 5.97375 20.8933 6.11292ZM26.1498 11.544H28.1418L28.8903 9.744H32.7842L33.5298 11.544H35.5698L31.8138 3.144H29.8938L26.1498 11.544ZM32.1728 8.268L30.8411 5.05319L29.5041 8.268H32.1728ZM38.2653 11.544V6.61089L40.7253 10.656H41.6013L44.0745 6.50229L44.0853 11.544H45.9093L45.8853 3.144H44.2893L41.1957 8.35984L38.0493 3.144H36.4413V11.544H38.2653ZM56.078 7.44304V6.17981C56.0007 6.46891 55.8808 6.7454 55.7142 7.00425C55.8478 7.13666 55.9695 7.28284 56.078 7.44304ZM55.0361 7.74071C54.8399 7.53871 54.5979 7.37847 54.3102 7.26C54.2353 7.22766 54.1583 7.19829 54.0792 7.17189C54.2118 7.10217 54.3337 7.02272 54.4447 6.93355C54.4479 6.93091 54.4512 6.92826 54.4545 6.92561C54.6126 6.79703 54.7485 6.6485 54.8622 6.48C54.8737 6.46261 54.8848 6.44507 54.8957 6.42737C55.0894 6.11113 55.1862 5.74468 55.1862 5.328C55.1862 4.672 54.9182 4.144 54.3822 3.744C53.8542 3.344 53.0622 3.144 52.0062 3.144H47.9022V11.544H52.2462C53.3502 11.544 54.1862 11.344 54.7542 10.944C55.3222 10.536 55.6062 9.972 55.6062 9.252C55.6062 8.764 55.4902 8.352 55.2582 8.016C55.1922 7.91693 55.1181 7.82517 55.0361 7.74071ZM49.8342 10.08H52.1022C52.6062 10.08 52.9862 10 53.2422 9.84C53.5062 9.672 53.6382 9.408 53.6382 9.048C53.6382 8.79279 53.5688 8.58594 53.4301 8.42745C53.3774 8.36735 53.3148 8.31419 53.2422 8.268C53.0952 8.16689 52.9072 8.09482 52.6782 8.0518C52.5087 8.01993 52.3167 8.004 52.1022 8.004H49.8342V10.08ZM51.9963 6.58112C52.0006 6.58085 52.0049 6.58058 52.0092 6.58029C52.3637 6.55676 52.6427 6.47933 52.8462 6.348C52.8671 6.33432 52.8871 6.32008 52.9062 6.30528C53.0144 6.22172 53.0955 6.12038 53.1495 6.00127C53.2033 5.88252 53.2302 5.74609 53.2302 5.592C53.2302 5.264 53.1022 5.02 52.8462 4.86C52.5982 4.692 52.2382 4.608 51.7662 4.608H49.8342V6.588H51.7662C51.8461 6.588 51.9229 6.58571 51.9963 6.58112ZM50.8342 9.004V9.08H52.1022C52.3043 9.08 52.4463 9.06366 52.5424 9.04487C52.453 9.02389 52.3126 9.004 52.1022 9.004H50.8342ZM62.7555 4.728V11.544H64.6995V4.728H67.3875V3.144H60.0675V4.728H62.7555ZM57.078 11.544H59.022V3.144H57.078V11.544Z" fill="#F4F7FA"/>
<g clip-path="url(#clip0_6_6)">
<path d="M4.06155 2.30361C4.06155 2.5223 4.09645 2.73272 4.16098 2.92953L3.72702 3.13467C3.36728 2.75886 2.86238 2.52511 2.30331 2.52511C1.21088 2.52511 0.325287 3.41763 0.325287 4.51861C0.325287 5.50003 1.02898 6.3158 1.9556 6.48142L2.99781 10.0827C3.01957 10.1579 3.05112 10.2298 3.09165 10.2966L3.69232 11.2873L3.68863 11.2879C3.2687 11.3628 2.96265 11.7306 2.96265 12.1604V13.8216C2.96265 14.311 3.35623 14.7076 3.84177 14.7076H12.2103C12.4435 14.7076 12.6671 14.6143 12.832 14.4481C12.9968 14.282 13.0894 14.0566 13.0894 13.8216V12.1604C13.0894 11.7301 12.7827 11.362 12.3622 11.2877L12.3445 11.2846L12.9435 10.2966C12.9841 10.2298 13.0156 10.1579 13.0374 10.0827L14.0796 6.48142C15.0062 6.3158 15.7099 5.50003 15.7099 4.51861C15.7099 3.41763 14.8243 2.52511 13.7319 2.52511C13.1721 2.52511 12.6667 2.75945 12.3068 3.13612L11.8736 2.93132C11.9385 2.73399 11.9736 2.52296 11.9736 2.30361C11.9736 1.20262 11.088 0.310104 9.99562 0.310104C8.90319 0.310104 8.01759 1.20262 8.01759 2.30361C8.01759 1.20262 7.132 0.310104 6.03957 0.310104C4.94715 0.310104 4.06155 1.20262 4.06155 2.30361Z" fill="#F4F7FA"/>
<path d="M6.43403 3.14152C6.84608 2.98175 7.13847 2.57904 7.13847 2.1075C7.13847 1.49584 6.64649 1 6.03957 1C5.43266 1 4.94067 1.49584 4.94067 2.1075C4.94067 2.67274 5.36083 3.13907 5.90354 3.20662L5.41349 7.20201L3.05103 5.13408C3.26706 4.93187 3.40221 4.64309 3.40221 4.3225C3.40221 3.71084 2.91021 3.215 2.30331 3.215C1.6964 3.215 1.20441 3.71084 1.20441 4.3225C1.20441 4.93417 1.6964 5.43001 2.30331 5.43001C2.41014 5.43001 2.51342 5.41465 2.61108 5.38597L3.84177 9.63851L5.11444 11.7374L3.84177 11.9643V13.6255H12.2103V11.9643L10.9213 11.7364L12.1934 9.63851L13.4241 5.38597C13.5218 5.41465 13.625 5.43001 13.7319 5.43001C14.3388 5.43001 14.8308 4.93417 14.8308 4.3225C14.8308 3.71084 14.3388 3.215 13.7319 3.215C13.125 3.215 12.633 3.71084 12.633 4.3225C12.633 4.64309 12.7681 4.93187 12.9842 5.13408L10.6217 7.20201L10.1316 3.20662C10.6744 3.13907 11.0945 2.67274 11.0945 2.1075C11.0945 1.49584 10.6025 1 9.99562 1C9.3887 1 8.89671 1.49584 8.89671 2.1075C8.89671 2.57904 9.18911 2.98175 9.60115 3.14152L8.01759 6.75901L6.43403 3.14152Z" fill="#34364C"/>
</g>
<defs>
<clipPath id="clip0_6_6">
<rect width="16" height="15" fill="white"/>
</clipPath>
</defs>
</svg>