<svg xmlns="http://www.w3.org/2000/svg" role="img" viewBox="1.89 -0.67 46.28 51.09"><path fill="#F4F7FA" d="M22.2674.38022c.9875-.11104 1.9659.27412 2.6127 1.02853l6.1207 7.13885c7.029 1.737 11.1016 7.0298 13.3541 13.6371C46.6759 28.9931 47.25 37.6365 47.25 46.5c0 1.6568-1.3431 3-3 3H16.2787c-1.5927 0-2.9078-1.2446-2.9955-2.8348-.0782-1.4191.2483-3.8815 1.2432-6.3966l.0183-.0461c-2.8254 1.5166-5.96108 1.1534-8.28885-.504-2.8289-2.0141-4.40183-5.9569-2.60473-9.8507 1.29591-2.8078 2.69262-4.2946 3.74922-5.4191.98696-1.0504 1.39826-1.5124 1.68923-2.6763 1.76423-7.0567 5.39363-11.1219 9.29133-12.97709-.0564-.80393-.0105-1.57845.0881-2.28165.2454-1.75035.8565-3.36788 1.4793-4.55035.4631-.87921 1.3316-1.47205 2.3191-1.58309z"/><path fill="#34364C" fill-rule="evenodd" d="M29.378 11.2639l-6.7754-7.90248c-.9807 1.86195-1.9316 5.14814-.5646 7.52048-.6634.059-1.2975.1713-1.788.3681-3.1291 1.2557-6.5625 4.5-8.25 11.25-.4886 1.9545-1.3681 2.8905-2.41335 4.0029-.98597 1.0494-2.11948 2.2557-3.21165 4.6221-2.24999 4.875 3.8222 9.75 8.25 5.3222 2.4894-2.4893 4.6653-3.517 6.4921-4.3798 2.6294-1.2418 4.5356-2.1421 5.6124-6.5674.5123 2.0642.3074 6.9358-4.6106 9.9082-4.9181 2.9725-5.9427 9.234-5.8402 11.0918H44.25c0-17.6376-2.3351-32.8764-14.872-35.2361z" clip-rule="evenodd"/><circle cx="21" cy="20.25" r="2.25" fill="#F4F7FA"/></svg>