<svg xmlns="http://www.w3.org/2000/svg" role="img" viewBox="8.04 3.60 37.05 46.73"><path fill="#34364C" d="M17.3306 30.8452c-.3579.4886-.785.9975-1.2828 1.5209-1.7569 1.8473-3.9116 3.3671-5.3023 4.1618l-.2339.1337C9.57685 37.1957 9 38.1897 9 39.2663V46.5c0 1.6569 1.3431 3 3 3h29.25c1.6569 0 3-1.3431 3-3v-7.2337c0-1.0766-.5769-2.0706-1.5116-2.6047l-.2339-.1337c-1.3907-.7947-3.5454-2.3145-5.3023-4.1618-.4978-.5234-.9249-1.0323-1.2828-1.5209 1.3166-.3171 2.2949-1.5026 2.2949-2.9166v-4.8835c0-.9747-.4736-1.8887-1.27-2.4509l-1.2741-.8994c.7352-1.4285 1.1512-3.0495 1.1512-4.7662 0-5.75957-4.669-10.4286-10.4285-10.4286-5.7596 0-10.4286 4.66903-10.4286 10.4286 0 1.8133.464 3.5193 1.2778 5.0046l-.9364.661c-.7964.5622-1.27 1.4762-1.27 2.4509v4.8835c0 1.414.9783 2.5995 2.2949 2.9166z"/><path fill="#F4F7FA" d="M33.8214 14.9286c0 2.1545-.9172 4.0947-2.3824 5.4516l3.7753 2.6649v4.8835h-3.6959c.1783 2.2636 1.6306 4.529 3.51 6.505 1.9945 2.0971 4.3941 3.7884 5.9877 4.699l.2339.1337V46.5H12v-7.2337l.2339-.1337c1.5936-.9106 3.9932-2.6019 5.9877-4.699 1.8794-1.976 3.3318-4.2414 3.51-6.505h-3.6959v-4.8835l3.5161-2.4819c-1.5842-1.3623-2.5875-3.3813-2.5875-5.6346 0-4.1027 3.3259-7.4286 7.4286-7.4286 4.1026 0 7.4285 3.3259 7.4285 7.4286z"/></svg>