<svg xmlns="http://www.w3.org/2000/svg" role="img" viewBox="8.09 2.84 37.02 47.52"><path fill="#34364C" d="M19.5 3.75c.5464 0 1.0587.14609 1.5.40135.4413-.25526.9536-.40135 1.5-.40135h8.25c.5464 0 1.0587.14609 1.5.40135.4413-.25526.9536-.40135 1.5-.40135h7.5c1.6569 0 3 1.34315 3 3v6.75c0 .9443-.4446 1.8334-1.2 2.4l-4.6291 3.4718 1.3108 11.7969c.347 3.1232 1.8007 4.7078 3.9183 7.5313.3895.5193.6 1.1509.6 1.8v6c0 1.6569-1.3431 3-3 3H12c-1.6569 0-3-1.3431-3-3v-6c0-.6491.21053-1.2807.6-1.8 2.1176-2.8235 3.5713-4.4081 3.9183-7.5313l1.3108-11.7969L10.2 15.9c-.75542-.5666-1.2-1.4557-1.2-2.4V6.75c0-1.65685 1.3431-3 3-3h7.5z"/><path fill="#F4F7FA" d="M12 6.75h7.5v4.5h3v-4.5h8.25v4.5h3v-4.5h7.5v6.75l-6 4.5 1.5 13.5H16.5L18 18l-6-4.5V6.75zm4.5 27.75h20.25l4.5 6v6H12v-6l4.5-6z"/></svg>